<svg xmlns="http://www.w3.org/2000/svg" xmlns:xlink="http://www.w3.org/1999/xlink" width="500" zoomAndPan="magnify" viewBox="0 0 375 374.999991" height="500" preserveAspectRatio="xMidYMid meet" version="1.0"><defs><clipPath id="dad5b4e12b"><path d="M 27.875 16.128906 L 359.375 16.128906 L 359.375 337.128906 L 27.875 337.128906 Z M 27.875 16.128906 " clip-rule="nonzero"/></clipPath></defs><g clip-path="url(#dad5b4e12b)"><path fill="#0f0656" d="M 50.050781 114.386719 L 64.085938 119.652344 C 86.121094 103.160156 107.808594 88.984375 129.140625 77.125 C 140.230469 70.949219 151.246094 65.402344 162.125 60.492188 C 167.949219 57.261719 174.335938 53.964844 181.144531 50.738281 C 170.054688 55.296875 158.335938 60.5625 144.019531 66.738281 C 158.335938 58.667969 166.546875 54.875 180.441406 48.351562 C 165.28125 53.824219 151.105469 60.703125 137.070312 67.019531 C 152.792969 57.753906 164.371094 52.703125 180.230469 45.402344 C 162.546875 51.578125 147.667969 58.738281 127.457031 69.542969 C 143.175781 59.015625 162.96875 49.191406 179.878906 42.035156 C 168.089844 45.894531 153 52.492188 134.613281 61.683594 C 131.105469 63.507812 127.597656 65.402344 124.089844 67.296875 C 104.15625 78.175781 84.859375 90.175781 66.261719 103.160156 Z M 246.199219 178.390625 C 247.8125 168.917969 252.585938 158.882812 260.65625 148.285156 C 249.285156 157.757812 244.445312 167.863281 246.199219 178.390625 Z M 269.148438 195.304688 C 273.148438 188.917969 275.605469 179.304688 275.324219 172.425781 C 277.988281 195.65625 268.9375 202.601562 253.21875 210.671875 C 259.042969 206.390625 265.21875 201.691406 269.148438 195.304688 Z M 189.355469 215.234375 C 178.898438 231.234375 180.863281 258.042969 186.617188 275.589844 C 182.898438 251.308594 183.808594 231.164062 189.355469 215.234375 Z M 219.953125 152.003906 C 219.179688 139.160156 221.847656 125.96875 227.179688 118.039062 C 231.109375 112.210938 235.390625 108.28125 240.09375 106.386719 C 248.515625 102.808594 256.65625 104.492188 263.464844 109.195312 C 270.691406 114.179688 274.058594 120.214844 274.128906 129.195312 C 271.953125 120.214844 267.464844 114.316406 260.445312 111.582031 C 254.410156 109.195312 247.8125 109.546875 241.777344 111.863281 C 225.566406 118.109375 221.777344 136.636719 219.953125 152.003906 Z M 264.585938 125.757812 C 262.199219 131.722656 261.148438 137.335938 261.566406 142.53125 C 263.953125 139.933594 266.058594 137.40625 267.882812 134.808594 C 269.5 132.496094 270.832031 130.601562 269.847656 127.582031 C 268.515625 123.371094 264.9375 119.792969 261.359375 117.476562 C 258.691406 115.019531 256.023438 113.265625 253.21875 112.914062 C 250.902344 112.5625 248.445312 112.984375 245.988281 113.476562 C 241.144531 114.457031 238.339844 117.125 236.515625 122.597656 C 235.25 126.320312 234.96875 129.617188 235.742188 132.636719 C 240.304688 127.089844 244.023438 121.828125 246.902344 116.773438 L 247.042969 119.792969 C 253.21875 121.195312 258.128906 124.003906 261.777344 128.144531 Z M 217.074219 186.25 C 215.53125 182.953125 215.179688 180.074219 215.671875 177.621094 C 216.511719 173.621094 221.566406 169.128906 225.566406 168.566406 C 223.109375 171.863281 221.355469 175.722656 220.445312 180.144531 L 222.546875 177.898438 C 225.988281 182.390625 230.480469 185.832031 236.023438 188.074219 C 235.8125 189.480469 235.390625 190.8125 234.828125 192.144531 C 239.109375 188.917969 241.847656 185.339844 243.039062 181.339844 C 244.726562 187.796875 243.460938 193.199219 239.109375 197.621094 C 236.304688 200.496094 234.96875 199.726562 231.53125 198.390625 C 224.652344 195.726562 219.671875 191.796875 217.074219 186.25 Z M 205.566406 182.109375 C 205.777344 176.285156 207.390625 171.304688 210.546875 167.234375 C 208.933594 174.8125 209.566406 182.8125 212.511719 191.164062 C 216.304688 198.53125 223.882812 202.320312 235.25 202.460938 C 227.53125 206.53125 219.25 205.339844 210.546875 199.023438 C 214.757812 205.902344 224.445312 210.183594 232.445312 207.9375 C 229.285156 212.988281 223.953125 215.304688 218.339844 215.375 C 213.355469 215.515625 207.671875 212.566406 204.722656 208.496094 C 197.285156 215.9375 192.300781 233.199219 189.84375 260.359375 C 186.617188 239.726562 191.039062 217.199219 202.96875 192.777344 C 205.988281 186.53125 205.355469 188.777344 205.566406 182.109375 Z M 208.441406 133.125 C 209.074219 129.617188 208.582031 125.476562 206.757812 120.703125 C 208.230469 129.125 205.847656 137.195312 199.601562 144.917969 C 204.511719 141.335938 207.460938 137.40625 208.441406 133.125 Z M 176.019531 189.550781 C 180.652344 167.511719 185.636719 171.304688 195.460938 156.636719 C 182.40625 168.707031 177.632812 169.339844 176.019531 189.550781 Z M 126.542969 187.164062 C 139.527344 189.691406 148.582031 196.496094 153.703125 207.445312 C 150.125 193.902344 140.019531 187.726562 126.542969 187.164062 Z M 114.542969 215.65625 C 132.789062 228.148438 140.300781 241.132812 145.28125 262.324219 C 143.386719 240.21875 134.125 225.691406 114.542969 215.65625 Z M 230.691406 98.527344 C 233.707031 94.386719 245.144531 88.914062 250.128906 86.738281 C 250.480469 86.597656 250.761719 86.457031 251.113281 86.316406 C 253.285156 82.878906 256.023438 80.5625 259.460938 79.300781 L 259.671875 79.230469 L 259.953125 79.160156 C 261.917969 78.738281 263.8125 78.808594 265.777344 79.300781 C 267.601562 79.789062 269.429688 80.632812 271.183594 81.964844 C 272.164062 82.738281 273.359375 83.441406 274.691406 84.140625 C 276.023438 84.84375 277.429688 85.476562 278.832031 86.035156 C 279.746094 86.386719 280.585938 86.808594 281.359375 87.300781 C 282.128906 87.789062 282.902344 88.351562 283.605469 88.984375 L 283.816406 89.125 L 283.886719 89.265625 C 285.921875 91.511719 287.042969 94.175781 287.253906 97.335938 C 287.394531 99.792969 286.972656 102.527344 285.851562 105.546875 C 286.058594 106.105469 286.199219 106.738281 286.339844 107.371094 C 287.113281 110.457031 287.675781 114.039062 287.746094 117.6875 C 287.816406 119.089844 287.746094 120.5625 287.675781 121.96875 C 287.253906 127.230469 285.710938 132.285156 282.410156 135.652344 L 282.269531 135.792969 C 281.78125 136.285156 281.078125 137.125 280.304688 138.179688 C 279.675781 139.089844 278.972656 140.074219 278.339844 141.054688 C 279.324219 143.160156 279.816406 144.917969 280.65625 147.863281 L 281.007812 148.988281 C 283.042969 155.441406 284.375 162.25 284.9375 169.480469 C 285.5 176.636719 285.289062 184.144531 284.304688 191.9375 L 284.304688 192.007812 L 284.234375 192.285156 C 283.605469 195.09375 283.183594 197.761719 282.972656 200.285156 C 282.761719 202.601562 282.761719 204.707031 282.972656 206.53125 C 283.535156 208.847656 284.65625 212.359375 285.992188 215.585938 C 286.058594 215.726562 286.128906 215.867188 286.128906 216.007812 L 286.339844 216.429688 C 281.148438 225.972656 275.394531 235.304688 269.078125 244.148438 C 254.269531 264.851562 236.585938 282.957031 215.8125 297.203125 C 204.230469 299.308594 192.511719 298.535156 181.496094 295.167969 C 202.335938 295.800781 213.917969 293.695312 225.425781 287.167969 C 215.742188 288.992188 211.742188 288.710938 204.230469 287.941406 C 234.761719 281.34375 253.496094 266.957031 260.375 244.851562 C 256.375 250.042969 250.832031 254.957031 243.671875 259.449219 C 258.128906 242.464844 266.621094 227.585938 269.007812 214.671875 C 249.707031 228.988281 232.65625 230.605469 212.933594 249.0625 C 221.425781 235.726562 237.566406 222.464844 261.429688 209.128906 C 271.253906 204.636719 276.726562 197.128906 277.847656 186.601562 C 278.339844 181.339844 278.339844 174.882812 277.988281 169.96875 C 277.429688 162.390625 275.675781 156.003906 273.917969 149.335938 C 268.515625 153.6875 262.902344 159.933594 257.21875 168.285156 C 260.9375 152.425781 269.707031 138.601562 277.429688 130.878906 C 281.78125 126.53125 281.429688 114.878906 279.605469 109.617188 C 276.375 106.949219 274.269531 103.722656 273.359375 99.863281 C 273.078125 98.808594 272.9375 97.6875 272.867188 96.5625 C 274.339844 100.421875 276.164062 102.597656 279.183594 103.300781 C 280.09375 100.703125 281.078125 96.421875 278.621094 94.316406 C 276.585938 92.632812 273.640625 91.789062 271.253906 90.527344 C 269.777344 89.753906 268.375 88.84375 266.902344 87.789062 C 265.847656 87.019531 264.867188 86.527344 263.882812 86.246094 C 263.113281 86.035156 262.269531 85.964844 261.496094 86.105469 C 259.601562 86.808594 258.058594 88.28125 256.726562 90.457031 C 257.425781 92.28125 261.289062 93.617188 265.5 93.265625 C 257.777344 95.582031 252.796875 93.40625 252.515625 93.40625 C 245.917969 96 240.234375 99.371094 235.179688 103.722656 C 226.199219 109.195312 220.023438 116.074219 216.792969 124.492188 C 216.441406 120.355469 217.707031 115.511719 219.390625 112.28125 C 213.144531 112.632812 208.792969 111.441406 205.988281 109.335938 C 208.652344 105.6875 212.304688 103.652344 214.898438 102.667969 C 214.199219 105.757812 215.8125 108.421875 220.023438 108.5625 C 223.109375 108.703125 225.566406 106.457031 225.847656 103.933594 C 226.058594 102.035156 224.375 99.300781 221.636719 98.878906 C 211.390625 97.40625 208.164062 101.757812 199.179688 105.265625 L 197.917969 105.335938 C 189.84375 105.6875 182.195312 107.441406 175.039062 110.597656 C 185.425781 108.632812 192.863281 108.632812 197.285156 110.738281 C 195.460938 111.933594 193.566406 113.828125 191.671875 116.5625 C 200.019531 113.546875 205.988281 114.457031 209.496094 119.441406 C 212.164062 123.230469 212.652344 127.792969 211.882812 132.144531 C 210.6875 138.742188 205.355469 145.757812 200.792969 150.460938 C 206.546875 147.300781 210.617188 143.933594 213.144531 140.496094 C 206.546875 156.636719 197.984375 159.164062 188.582031 170.53125 C 181.496094 179.09375 178.195312 189.199219 178.546875 200.988281 C 165.421875 191.515625 158.476562 176.355469 157.632812 155.511719 C 157.003906 156.144531 156.441406 157.058594 155.949219 158.179688 C 156.300781 151.582031 157.28125 146.109375 158.898438 141.828125 C 154.335938 151.722656 152.652344 160.988281 153.84375 169.480469 C 154.335938 166.039062 154.964844 163.375 155.738281 161.476562 C 155.457031 168.285156 156.019531 175.09375 157.492188 181.832031 C 149.140625 173.96875 145.914062 163.09375 147.878906 148.988281 C 146.195312 153.757812 145.492188 158.460938 145.773438 163.023438 C 142.617188 152.496094 142.265625 143.441406 144.789062 135.933594 C 147.808594 126.808594 151.105469 120.5625 154.757812 117.195312 C 148.582031 119.160156 143.246094 122.808594 139.667969 130.390625 C 139.105469 123.582031 140.859375 120.914062 144.929688 117.40625 C 140.300781 117.265625 136.859375 119.019531 134.613281 122.738281 C 135.527344 119.652344 136.230469 117.40625 136.859375 116.074219 C 134.195312 117.96875 132.507812 120.421875 131.808594 123.371094 C 131.667969 124.984375 131.667969 126.667969 131.878906 128.496094 C 132.230469 131.089844 132.859375 133.617188 133.773438 136.003906 L 134.824219 138.8125 C 124.160156 143.230469 115.667969 150.742188 109.421875 161.40625 C 118.332031 153.546875 126.402344 148.917969 133.632812 147.582031 C 133.070312 159.863281 137.210938 172.144531 146.195312 184.285156 C 139.949219 182.25 134.125 181.691406 128.648438 182.601562 C 140.71875 184.917969 149.632812 190.460938 155.386719 199.09375 C 161.492188 209.761719 163.246094 222.953125 160.792969 238.535156 C 158.828125 229.691406 155.527344 221.832031 150.828125 215.023438 C 157.28125 234.394531 155.316406 252.21875 144.929688 268.640625 C 139.738281 250.675781 131.949219 237.199219 121.421875 228.289062 C 128.160156 236.359375 131.597656 244.007812 131.808594 251.167969 C 129.84375 246.324219 126.613281 242.535156 122.054688 239.867188 C 109.5625 231.515625 102.402344 219.09375 100.507812 202.53125 C 101.421875 205.621094 103.316406 209.128906 106.261719 213.128906 C 101.492188 197.410156 103.246094 184.074219 111.527344 173.339844 C 102.542969 182.601562 98.121094 192.214844 98.402344 202.183594 C 97.5625 199.585938 97.210938 196.917969 97.351562 194.320312 C 95.804688 200.777344 95.316406 208.007812 96.15625 213.621094 C 91.035156 203.515625 86.332031 193.199219 82.121094 182.742188 L 82.542969 182.460938 C 85.910156 180.285156 89.488281 177.480469 92.578125 174.460938 C 95.875 171.304688 98.472656 168.003906 99.316406 165.269531 L 99.386719 164.917969 L 99.527344 164.707031 C 102.824219 158.109375 106.964844 152.214844 111.808594 147.089844 C 116.085938 142.601562 120.929688 138.671875 126.332031 135.300781 C 125.773438 133.335938 125.28125 131.230469 125 129.125 L 125 128.984375 C 124.4375 123.792969 125 119.230469 126.613281 115.300781 C 128.300781 111.300781 131.105469 108.003906 135.035156 105.546875 L 135.175781 105.476562 L 135.386719 105.40625 C 140.300781 103.019531 145.070312 102.597656 149.632812 104.210938 C 153.140625 105.476562 156.441406 107.863281 159.457031 111.441406 C 164.652344 107.652344 170.125 104.632812 175.878906 102.457031 C 182.335938 100 189.214844 98.597656 196.441406 98.105469 C 199.179688 95.792969 201.847656 93.964844 204.582031 92.703125 C 207.671875 91.230469 210.757812 90.527344 213.847656 90.457031 C 218.128906 90.035156 221.917969 90.105469 225.355469 90.667969 C 220.023438 90.597656 212.164062 92.703125 207.742188 95.859375 C 218.828125 93.617188 228.164062 93.964844 230.691406 98.527344 Z M 78.472656 177.410156 C 75.875 179.375 74.683594 181.480469 76.507812 185.902344 C 85.28125 207.726562 96.296875 228.640625 109.910156 247.726562 C 125.84375 270.042969 145.070312 289.34375 167.597656 304.292969 C 140.929688 288.921875 118.472656 267.730469 100.507812 242.464844 C 82.261719 216.847656 68.996094 187.9375 59.59375 157.96875 C 56.925781 147.300781 55.101562 138.039062 53.980469 130.320312 C 57.980469 148.214844 64.015625 169.480469 71.523438 186.8125 C 64.507812 164.988281 60.226562 149.054688 57.347656 130.601562 C 61.699219 147.511719 64.578125 159.863281 70.824219 176.988281 C 67.171875 162.039062 62.960938 146.882812 60.296875 130.949219 C 64.226562 145.757812 66.402344 154.53125 71.804688 170.109375 C 68.296875 154.882812 65.207031 142.460938 62.753906 130.667969 C 66.402344 144.214844 70.542969 156.566406 74.261719 165.6875 L 74.261719 165.476562 C 75.59375 169.480469 77 173.480469 78.472656 177.410156 Z M 80.789062 129.546875 L 66.613281 124.214844 C 68.578125 133.617188 70.824219 142.671875 73.347656 151.371094 C 75.734375 159.652344 78.402344 167.652344 81.277344 175.304688 C 83.664062 173.550781 85.980469 171.652344 88.015625 169.6875 C 88.929688 168.847656 90.542969 167.164062 91.734375 165.546875 C 87.664062 154.460938 84.085938 142.742188 81.070312 130.53125 Z M 192.019531 67.226562 C 173.984375 74.316406 155.878906 82.878906 137.632812 92.773438 C 127.878906 98.105469 118.121094 103.792969 108.367188 109.898438 C 103.738281 111.933594 96.859375 115.511719 88.015625 120.84375 C 92.789062 117.265625 99.664062 113.054688 108.367188 107.089844 C 103.875 109.265625 96.648438 112.984375 86.964844 119.300781 C 93.492188 114.527344 101.070312 109.335938 109.210938 103.089844 C 102.402344 106.667969 93.699219 112.074219 84.648438 118.386719 C 92.015625 112.5625 100.15625 106.597656 109.910156 99.160156 C 98.894531 105.828125 93.140625 110.039062 83.3125 116.984375 C 92.929688 108.703125 103.035156 101.6875 112.789062 94.527344 C 100.4375 101.6875 92.507812 107.652344 81.347656 115.722656 C 92.367188 106.039062 102.964844 98.597656 118.191406 88.984375 C 104.929688 95.652344 90.613281 105.40625 79.175781 114.246094 C 81.839844 111.792969 85 109.195312 88.507812 106.386719 C 102.753906 96.632812 116.789062 87.929688 130.753906 80.140625 C 151.457031 68.632812 171.878906 59.296875 191.949219 52.140625 L 191.949219 67.226562 Z M 244.304688 82.175781 C 228.722656 74.105469 217.144531 68.773438 203.460938 64.140625 C 216.023438 69.753906 225.144531 73.542969 237.566406 80.703125 C 226.480469 75.859375 215.320312 70.597656 203.390625 66.457031 C 214.335938 71.4375 220.863281 74.316406 232.164062 80.492188 C 220.863281 75.789062 211.601562 71.71875 202.828125 68.28125 C 212.234375 72.632812 220.792969 77.195312 227.25 81.125 C 230.480469 82.667969 233.777344 84.28125 237.074219 85.964844 C 237.707031 85.613281 238.410156 85.195312 239.039062 84.84375 C 240.304688 84.140625 241.566406 83.511719 242.902344 82.878906 C 243.25 82.667969 243.742188 82.386719 244.304688 82.175781 Z M 250.691406 76.84375 C 245.007812 73.753906 239.320312 70.878906 233.636719 68.140625 C 228.234375 66.105469 221.847656 63.71875 214.476562 61.050781 C 220.652344 63.71875 227.109375 67.019531 233.988281 70.949219 C 223.320312 65.964844 213.707031 62.175781 205.074219 59.507812 C 214.40625 63.019531 226.828125 68.703125 239.390625 76.421875 C 224.863281 69.402344 212.933594 64.351562 203.671875 61.472656 C 216.792969 66.808594 232.09375 74.175781 244.375 82.105469 C 245.144531 81.753906 245.988281 81.335938 246.832031 80.984375 C 247.953125 79.4375 249.285156 78.035156 250.691406 76.84375 Z M 293.921875 98.808594 C 298.480469 101.828125 303.113281 104.984375 307.746094 108.210938 C 312.9375 111.863281 318.132812 115.652344 323.464844 119.582031 L 337.5 114.316406 L 321.289062 103.019531 C 302.621094 90.105469 283.394531 78.035156 263.464844 67.15625 C 244.65625 56.910156 225.355469 47.71875 205.425781 39.929688 L 195.53125 36.070312 L 195.53125 48.351562 C 205.707031 51.929688 215.882812 56.070312 226.199219 60.703125 C 235.390625 64.84375 244.65625 69.472656 253.988281 74.527344 C 255.113281 73.894531 256.234375 73.402344 257.425781 72.984375 L 258.058594 72.773438 L 258.832031 72.632812 C 261.777344 72.070312 264.726562 72.140625 267.601562 72.84375 C 270.339844 73.542969 272.9375 74.878906 275.253906 76.5625 C 276.09375 77.195312 277.007812 77.753906 277.988281 78.246094 C 278.902344 78.738281 279.816406 79.160156 280.796875 79.578125 L 281.429688 79.859375 C 282.691406 80.351562 283.886719 80.914062 285.007812 81.613281 C 286.128906 82.316406 287.183594 83.089844 288.234375 84 L 288.726562 84.421875 L 289.078125 84.773438 C 292.164062 88.140625 293.851562 92.28125 294.132812 96.914062 C 293.921875 97.546875 293.921875 98.175781 293.921875 98.808594 Z M 293.359375 103.371094 C 293.429688 103.160156 293.429688 102.878906 293.5 102.667969 C 295.324219 103.863281 297.148438 105.125 298.972656 106.386719 C 302.480469 109.195312 305.640625 111.792969 308.308594 114.246094 C 303.675781 110.597656 298.621094 106.949219 293.359375 103.371094 Z M 292.9375 106.246094 C 292.867188 106.039062 292.867188 105.828125 292.796875 105.617188 C 292.867188 105.40625 292.9375 105.195312 292.9375 105.054688 C 297.429688 108.421875 301.710938 111.933594 306.132812 115.722656 C 301.359375 112.210938 297.148438 109.195312 292.9375 106.246094 Z M 293.640625 109.546875 C 293.570312 109.125 293.5 108.703125 293.429688 108.28125 C 297.078125 111.019531 300.65625 113.898438 304.167969 116.984375 C 300.167969 114.179688 296.867188 111.792969 293.640625 109.546875 Z M 294.0625 112.421875 L 293.992188 112.003906 C 293.992188 111.863281 293.921875 111.652344 293.921875 111.511719 C 297.007812 113.898438 299.957031 116.144531 302.761719 118.386719 C 299.886719 116.285156 296.9375 114.316406 294.0625 112.421875 Z M 294.339844 115.441406 C 294.339844 115.230469 294.339844 115.019531 294.269531 114.808594 C 296.445312 116.351562 298.480469 117.828125 300.445312 119.300781 C 298.339844 117.898438 296.304688 116.5625 294.339844 115.441406 Z M 294.410156 117.898438 C 294.410156 117.6875 294.410156 117.476562 294.410156 117.335938 C 296.304688 118.597656 297.921875 119.792969 299.394531 120.84375 C 297.710938 119.792969 296.027344 118.808594 294.410156 117.898438 Z M 290.902344 209.269531 C 297.289062 197.480469 302.902344 184.707031 307.746094 171.023438 C 312.9375 156.425781 317.289062 140.847656 320.867188 124.214844 L 306.691406 129.546875 L 306.414062 130.601562 C 302.480469 146.390625 297.640625 161.339844 291.957031 175.304688 C 292.027344 181.058594 291.675781 186.8125 291.042969 192.496094 L 290.972656 192.917969 L 290.832031 193.480469 C 290.339844 195.796875 289.921875 198.183594 289.710938 200.566406 C 289.570312 202.113281 289.5 203.65625 289.640625 205.199219 C 289.851562 206.042969 290.128906 206.953125 290.410156 207.867188 C 290.550781 208.359375 290.761719 208.847656 290.902344 209.269531 Z M 193.636719 317.414062 C 226.410156 301.554688 253.285156 277.273438 274.410156 247.65625 C 280.585938 239.027344 286.058594 229.902344 291.394531 220.640625 C 292.515625 218.675781 292.65625 216.636719 292.097656 214.042969 C 299.253906 201.199219 305.5 187.234375 310.902344 172.214844 C 311.675781 169.96875 312.449219 167.722656 313.21875 165.476562 L 313.21875 165.617188 C 316.9375 156.496094 321.078125 144.144531 324.730469 130.601562 C 322.273438 142.320312 319.183594 154.8125 315.675781 170.039062 C 321.007812 154.53125 323.253906 145.757812 327.183594 130.878906 C 324.589844 146.8125 320.378906 161.96875 316.660156 176.917969 C 322.902344 159.792969 325.78125 147.511719 330.132812 130.53125 C 327.253906 149.054688 322.902344 164.988281 315.957031 186.742188 C 323.464844 169.339844 329.5 148.144531 333.5 130.25 C 332.449219 137.96875 330.554688 147.160156 327.886719 157.898438 C 318.554688 187.9375 305.289062 216.847656 286.972656 242.394531 C 266.199219 271.449219 239.671875 295.167969 207.460938 310.816406 L 193.707031 317.484375 Z M 327.183594 94.527344 L 351.046875 111.089844 L 344.027344 139.300781 C 334.414062 178.109375 318.902344 215.867188 295.605469 248.5 C 273.847656 278.957031 245.917969 303.871094 212.09375 320.222656 L 193.777344 329.066406 L 175.457031 320.222656 C 141.632812 303.871094 113.703125 278.957031 91.945312 248.5 C 68.578125 215.867188 53.136719 178.039062 43.453125 139.230469 L 36.433594 111.019531 L 60.296875 94.457031 C 79.242188 81.335938 98.824219 69.054688 119.105469 58.035156 C 138.265625 47.578125 158.054688 38.246094 178.335938 30.246094 L 193.707031 24.207031 L 209.074219 30.246094 C 229.355469 38.246094 249.144531 47.578125 268.304688 58.035156 C 288.585938 69.125 308.238281 81.335938 327.183594 94.527344 Z M 331.464844 88.28125 L 359.609375 107.792969 L 351.328125 141.054688 C 341.429688 180.777344 325.570312 219.445312 301.710938 252.851562 C 279.253906 284.359375 250.269531 310.117188 215.320312 327.03125 L 193.707031 337.484375 L 172.089844 327.03125 C 137.140625 310.117188 108.226562 284.359375 85.699219 252.851562 C 61.839844 219.445312 45.980469 180.777344 36.085938 141.054688 L 27.875 107.863281 L 56.015625 88.351562 C 75.171875 75.019531 95.035156 62.667969 115.527344 51.507812 C 134.964844 40.910156 155.035156 31.4375 175.597656 23.367188 L 193.707031 16.136719 L 211.882812 23.226562 C 232.515625 31.296875 252.515625 40.839844 271.953125 51.367188 C 292.445312 62.597656 312.308594 74.949219 331.464844 88.28125 Z M 331.464844 88.28125 " fill-opacity="1" fill-rule="evenodd"/></g></svg>